<svg xmlns="http://www.w3.org/2000/svg" xmlns:xlink="http://www.w3.org/1999/xlink" width="200" zoomAndPan="magnify" viewBox="0 0 150 225" height="300" preserveAspectRatio="xMidYMid meet" version="1.2"><defs><clipPath id="7ae5fb17ae"><path d="M 3.746094 87.242188 L 20.425781 87.242188 L 20.425781 91.734375 L 3.746094 91.734375 Z M 3.746094 87.242188 "/></clipPath><clipPath id="7e0d317673"><path d="M 3.746094 132.6875 L 20.425781 132.6875 L 20.425781 137.175781 L 3.746094 137.175781 Z M 3.746094 132.6875 "/></clipPath><clipPath id="22ed481b54"><path d="M 20.425781 103.921875 L 37.007812 103.921875 L 37.007812 120.5 L 20.425781 120.5 Z M 20.425781 103.921875 "/></clipPath><clipPath id="a061343d39"><path d="M 28.71875 103.921875 C 24.140625 103.921875 20.425781 107.632812 20.425781 112.210938 C 20.425781 116.789062 24.140625 120.5 28.71875 120.5 C 33.296875 120.5 37.007812 116.789062 37.007812 112.210938 C 37.007812 107.632812 33.296875 103.921875 28.71875 103.921875 Z M 28.71875 103.921875 "/></clipPath><clipPath id="fd574ca838"><path d="M 37.003906 87.242188 L 53.683594 87.242188 L 53.683594 91.734375 L 37.003906 91.734375 Z M 37.003906 87.242188 "/></clipPath><clipPath id="7c1d17c1b7"><path d="M 37.003906 132.6875 L 53.683594 132.6875 L 53.683594 137.175781 L 37.003906 137.175781 Z M 37.003906 132.6875 "/></clipPath><clipPath id="80f50ab4b6"><path d="M 49.195312 123.742188 L 53.683594 123.742188 L 53.683594 137.179688 L 49.195312 137.179688 Z M 49.195312 123.742188 "/></clipPath><clipPath id="428e7942bf"><path d="M 3.75 123.742188 L 8.238281 123.742188 L 8.238281 137.179688 L 3.75 137.179688 Z M 3.75 123.742188 "/></clipPath><clipPath id="25ebd4eacd"><path d="M 49.195312 87.246094 L 53.683594 87.246094 L 53.683594 100.683594 L 49.195312 100.683594 Z M 49.195312 87.246094 "/></clipPath><clipPath id="af883d9275"><path d="M 3.75 87.246094 L 8.238281 87.246094 L 8.238281 100.683594 L 3.75 100.683594 Z M 3.75 87.246094 "/></clipPath></defs><g id="76dea968e0"><g style="fill:#000000;fill-opacity:1;"><g transform="translate(64.898383, 106.831677)"><path style="stroke:none" d="M 8.410156 0.386719 C 12.535156 0.386719 15.441406 -1.828125 15.441406 -5.449219 C 15.441406 -9.40625 12.175781 -10.433594 9.105469 -11.398438 C 6.171875 -12.285156 5.421875 -12.921875 5.421875 -14.113281 C 5.421875 -15.21875 6.363281 -16.046875 7.96875 -16.046875 C 9.933594 -16.046875 10.984375 -15.023438 11.675781 -13.558594 L 14.886719 -15.414062 C 13.585938 -18.125 11.152344 -19.757812 7.96875 -19.757812 C 4.648438 -19.757812 1.605469 -17.652344 1.605469 -14 C 1.605469 -10.320312 4.484375 -9.074219 7.441406 -8.21875 C 10.320312 -7.386719 11.621094 -6.835938 11.621094 -5.394531 C 11.621094 -4.316406 10.820312 -3.347656 8.523438 -3.347656 C 6.113281 -3.347656 4.757812 -4.511719 4.066406 -6.308594 L 0.800781 -4.398438 C 1.855469 -1.523438 4.453125 0.386719 8.410156 0.386719 Z M 8.410156 0.386719 "/></g></g><g style="fill:#000000;fill-opacity:1;"><g transform="translate(81.030216, 106.831677)"><path style="stroke:none" d="M 9.324219 -14.222656 C 7.472656 -14.222656 6.03125 -13.53125 5.203125 -12.285156 L 5.203125 -19.371094 L 1.632812 -19.371094 L 1.632812 0 L 5.203125 0 L 5.203125 -7.472656 C 5.203125 -9.878906 6.503906 -10.902344 8.246094 -10.902344 C 9.851562 -10.902344 10.984375 -9.933594 10.984375 -8.050781 L 10.984375 0 L 14.554688 0 L 14.554688 -8.496094 C 14.554688 -12.175781 12.257812 -14.222656 9.324219 -14.222656 Z M 9.324219 -14.222656 "/></g></g><g style="fill:#000000;fill-opacity:1;"><g transform="translate(96.996026, 106.831677)"><path style="stroke:none" d="M 8.21875 0.386719 C 12.285156 0.386719 15.550781 -2.792969 15.550781 -6.917969 C 15.550781 -11.039062 12.285156 -14.222656 8.21875 -14.222656 C 4.152344 -14.222656 0.914062 -11.039062 0.914062 -6.917969 C 0.914062 -2.792969 4.152344 0.386719 8.21875 0.386719 Z M 8.21875 -3.097656 C 6.113281 -3.097656 4.484375 -4.675781 4.484375 -6.917969 C 4.484375 -9.160156 6.113281 -10.734375 8.21875 -10.734375 C 10.347656 -10.734375 11.980469 -9.160156 11.980469 -6.917969 C 11.980469 -4.675781 10.347656 -3.097656 8.21875 -3.097656 Z M 8.21875 -3.097656 "/></g></g><g style="fill:#000000;fill-opacity:1;"><g transform="translate(112.878826, 106.831677)"><path style="stroke:none" d="M 17.210938 -13.835938 L 14.859375 -5.3125 L 12.339844 -13.835938 L 8.964844 -13.835938 L 6.445312 -5.339844 L 4.09375 -13.835938 L 0.304688 -13.835938 L 4.703125 0 L 8.105469 0 L 10.652344 -8.382812 L 13.199219 0 L 16.601562 0 L 21 -13.835938 Z M 17.210938 -13.835938 "/></g></g><g style="fill:#000000;fill-opacity:1;"><g transform="translate(64.898383, 136.36662)"><path style="stroke:none" d="M 8.410156 0.386719 C 12.535156 0.386719 15.441406 -1.828125 15.441406 -5.449219 C 15.441406 -9.40625 12.175781 -10.433594 9.105469 -11.398438 C 6.171875 -12.285156 5.421875 -12.921875 5.421875 -14.113281 C 5.421875 -15.21875 6.363281 -16.046875 7.96875 -16.046875 C 9.933594 -16.046875 10.984375 -15.023438 11.675781 -13.558594 L 14.886719 -15.414062 C 13.585938 -18.125 11.152344 -19.757812 7.96875 -19.757812 C 4.648438 -19.757812 1.605469 -17.652344 1.605469 -14 C 1.605469 -10.320312 4.484375 -9.074219 7.441406 -8.21875 C 10.320312 -7.386719 11.621094 -6.835938 11.621094 -5.394531 C 11.621094 -4.316406 10.820312 -3.347656 8.523438 -3.347656 C 6.113281 -3.347656 4.757812 -4.511719 4.066406 -6.308594 L 0.800781 -4.398438 C 1.855469 -1.523438 4.453125 0.386719 8.410156 0.386719 Z M 8.410156 0.386719 "/></g></g><g style="fill:#000000;fill-opacity:1;"><g transform="translate(81.030216, 136.36662)"><path style="stroke:none" d="M 9.683594 -14.222656 C 7.664062 -14.222656 6.199219 -13.476562 5.203125 -12.203125 L 5.203125 -13.835938 L 1.632812 -13.835938 L 1.632812 5.535156 L 5.203125 5.535156 L 5.203125 -1.632812 C 6.199219 -0.359375 7.664062 0.386719 9.683594 0.386719 C 13.390625 0.386719 16.4375 -2.792969 16.4375 -6.917969 C 16.4375 -11.039062 13.390625 -14.222656 9.683594 -14.222656 Z M 9.019531 -3.015625 C 6.835938 -3.015625 5.203125 -4.59375 5.203125 -6.917969 C 5.203125 -9.242188 6.835938 -10.820312 9.019531 -10.820312 C 11.234375 -10.820312 12.867188 -9.242188 12.867188 -6.917969 C 12.867188 -4.59375 11.234375 -3.015625 9.019531 -3.015625 Z M 9.019531 -3.015625 "/></g></g><g style="fill:#000000;fill-opacity:1;"><g transform="translate(98.351875, 136.36662)"><path style="stroke:none" d="M 12.148438 -13.835938 L 12.148438 -12.203125 C 11.152344 -13.449219 9.65625 -14.222656 7.636719 -14.222656 C 3.957031 -14.222656 0.914062 -11.039062 0.914062 -6.917969 C 0.914062 -2.792969 3.957031 0.386719 7.636719 0.386719 C 9.65625 0.386719 11.152344 -0.386719 12.148438 -1.632812 L 12.148438 0 L 15.714844 0 L 15.714844 -13.835938 Z M 8.300781 -3.015625 C 6.113281 -3.015625 4.484375 -4.59375 4.484375 -6.917969 C 4.484375 -9.242188 6.113281 -10.820312 8.300781 -10.820312 C 10.515625 -10.820312 12.148438 -9.242188 12.148438 -6.917969 C 12.148438 -4.59375 10.515625 -3.015625 8.300781 -3.015625 Z M 8.300781 -3.015625 "/></g></g><g style="fill:#000000;fill-opacity:1;"><g transform="translate(115.673534, 136.36662)"><path style="stroke:none" d="M 8.21875 0.386719 C 10.929688 0.386719 13.28125 -1.050781 14.472656 -3.210938 L 11.371094 -4.980469 C 10.820312 -3.847656 9.628906 -3.15625 8.191406 -3.15625 C 6.058594 -3.15625 4.484375 -4.730469 4.484375 -6.917969 C 4.484375 -9.132812 6.058594 -10.707031 8.191406 -10.707031 C 9.601562 -10.707031 10.792969 -9.988281 11.34375 -8.855469 L 14.417969 -10.652344 C 13.28125 -12.785156 10.929688 -14.222656 8.21875 -14.222656 C 4.011719 -14.222656 0.914062 -11.039062 0.914062 -6.917969 C 0.914062 -2.792969 4.011719 0.386719 8.21875 0.386719 Z M 8.21875 0.386719 "/></g></g><g style="fill:#000000;fill-opacity:1;"><g transform="translate(130.172812, 136.36662)"><path style="stroke:none" d="M 4.648438 -5.449219 L 15.082031 -5.449219 C 15.164062 -5.921875 15.21875 -6.390625 15.21875 -6.917969 C 15.21875 -10.984375 12.3125 -14.222656 8.21875 -14.222656 C 3.875 -14.222656 0.914062 -11.039062 0.914062 -6.917969 C 0.914062 -2.792969 3.847656 0.386719 8.496094 0.386719 C 11.152344 0.386719 13.226562 -0.691406 14.527344 -2.574219 L 11.648438 -4.234375 C 11.039062 -3.429688 9.933594 -2.851562 8.550781 -2.851562 C 6.667969 -2.851562 5.148438 -3.625 4.648438 -5.449219 Z M 4.59375 -8.21875 C 5.007812 -9.988281 6.308594 -11.011719 8.21875 -11.011719 C 9.710938 -11.011719 11.207031 -10.210938 11.648438 -8.21875 Z M 4.59375 -8.21875 "/></g></g><g clip-rule="nonzero" clip-path="url(#7ae5fb17ae)"><path style=" stroke:none;fill-rule:nonzero;fill:#c99c31;fill-opacity:1;" d="M 20.425781 87.242188 L 20.425781 91.734375 L 3.746094 91.734375 L 3.746094 87.242188 Z M 20.425781 87.242188 "/></g><g clip-rule="nonzero" clip-path="url(#7e0d317673)"><path style=" stroke:none;fill-rule:nonzero;fill:#c99c31;fill-opacity:1;" d="M 20.425781 132.6875 L 20.425781 137.175781 L 3.746094 137.175781 L 3.746094 132.6875 Z M 20.425781 132.6875 "/></g><g clip-rule="nonzero" clip-path="url(#22ed481b54)"><g clip-rule="nonzero" clip-path="url(#a061343d39)"><path style=" stroke:none;fill-rule:nonzero;fill:#c99c31;fill-opacity:1;" d="M 20.425781 103.921875 L 37.007812 103.921875 L 37.007812 120.5 L 20.425781 120.5 Z M 20.425781 103.921875 "/></g></g><g clip-rule="nonzero" clip-path="url(#fd574ca838)"><path style=" stroke:none;fill-rule:nonzero;fill:#c99c31;fill-opacity:1;" d="M 53.683594 87.242188 L 53.683594 91.734375 L 37.003906 91.734375 L 37.003906 87.242188 Z M 53.683594 87.242188 "/></g><g clip-rule="nonzero" clip-path="url(#7c1d17c1b7)"><path style=" stroke:none;fill-rule:nonzero;fill:#c99c31;fill-opacity:1;" d="M 53.683594 132.6875 L 53.683594 137.175781 L 37.003906 137.175781 L 37.003906 132.6875 Z M 53.683594 132.6875 "/></g><g clip-rule="nonzero" clip-path="url(#80f50ab4b6)"><path style=" stroke:none;fill-rule:nonzero;fill:#c99c31;fill-opacity:1;" d="M 49.195312 123.742188 L 53.683594 123.742188 L 53.683594 137.175781 L 49.195312 137.175781 Z M 49.195312 123.742188 "/></g><g clip-rule="nonzero" clip-path="url(#428e7942bf)"><path style=" stroke:none;fill-rule:nonzero;fill:#c99c31;fill-opacity:1;" d="M 3.75 123.742188 L 8.238281 123.742188 L 8.238281 137.175781 L 3.75 137.175781 Z M 3.75 123.742188 "/></g><g clip-rule="nonzero" clip-path="url(#25ebd4eacd)"><path style=" stroke:none;fill-rule:nonzero;fill:#c99c31;fill-opacity:1;" d="M 49.195312 87.246094 L 53.683594 87.246094 L 53.683594 100.679688 L 49.195312 100.679688 Z M 49.195312 87.246094 "/></g><g clip-rule="nonzero" clip-path="url(#af883d9275)"><path style=" stroke:none;fill-rule:nonzero;fill:#c99c31;fill-opacity:1;" d="M 3.75 87.246094 L 8.238281 87.246094 L 8.238281 100.679688 L 3.75 100.679688 Z M 3.75 87.246094 "/></g><path style="fill:none;stroke-width:14;stroke-linecap:butt;stroke-linejoin:miter;stroke:#c99c31;stroke-opacity:1;stroke-miterlimit:4;" d="M 5.27956 44.978029 C 49.27929 -5.65628 93.279019 -5.65628 137.278749 44.978029 " transform="matrix(0.310282,0,0,0.310282,6.600126,99.719888)"/><path style="fill:none;stroke-width:14;stroke-linecap:butt;stroke-linejoin:miter;stroke:#c99c31;stroke-opacity:1;stroke-miterlimit:4;" d="M 5.281321 4.59891 C 49.272941 55.098724 93.271332 55.089832 137.263986 4.597675 " transform="matrix(0.311268,0.00050602,-0.000499637,0.307342,6.604483,109.384671)"/></g></svg>